<?xml version="1.0" encoding="utf-8"?>
<!-- Generator: Adobe Illustrator 27.5.0, SVG Export Plug-In . SVG Version: 6.00 Build 0)  -->
<svg version="1.1" xmlns="http://www.w3.org/2000/svg" xmlns:xlink="http://www.w3.org/1999/xlink" x="0px" y="0px"
	 viewBox="0 0 500 500" style="enable-background:new 0 0 500 500;" xml:space="preserve">
<g id="Background_Simple">
	<g>
		<path style="fill:#C6FF00;" d="M113.716,380.487c0,0,37.708,36.547,96.89,37.041c59.181,0.494,74.46-51.016,95.14-60.314
			c20.68-9.297,44.06,12.688,88.427,7.798s72.83-72.592,41.548-111.952c-31.283-39.361-76.54-56.127-72.407-79.741
			c4.133-23.614,30.526-48.981,2.71-70.477c-27.816-21.496-65.527-37.691-141.412-13.186
			c-75.885,24.506-78.312,70.389-135.99,76.746c-57.678,6.358-69.055,52.526-33.31,98.412S79.653,349.855,113.716,380.487z"/>
		<path style="opacity:0.7;fill:#FFFFFF;" d="M113.716,380.487c0,0,37.708,36.547,96.89,37.041
			c59.181,0.494,74.46-51.016,95.14-60.314c20.68-9.297,44.06,12.688,88.427,7.798s72.83-72.592,41.548-111.952
			c-31.283-39.361-76.54-56.127-72.407-79.741c4.133-23.614,30.526-48.981,2.71-70.477c-27.816-21.496-65.527-37.691-141.412-13.186
			c-75.885,24.506-78.312,70.389-135.99,76.746c-57.678,6.358-69.055,52.526-33.31,98.412S79.653,349.855,113.716,380.487z"/>
		<g style="opacity:0.5;">
			<path style="fill:#FFFFFF;" d="M43.095,245.689l195.893-86.497L35.319,208.344C33.889,219.664,36.471,232.447,43.095,245.689z"/>
			<path style="fill:#FFFFFF;" d="M100.8,365.619L245.674,167.5L83.217,322.033C88.048,337.797,91.952,352.364,100.8,365.619z"/>
			<path style="fill:#FFFFFF;" d="M158.451,407.415l91.942-237.334L119.025,385.025
				C125.994,390.566,139.604,400.098,158.451,407.415z"/>
			<path style="fill:#FFFFFF;" d="M88.621,166.403c-18.534,2.043-32.278,8.201-41.223,17.135l190.078-29.507l-107.928-2.698
				C118.603,158.871,106.171,164.468,88.621,166.403z"/>
			<path style="fill:#FFFFFF;" d="M210.606,417.529c6.732,0.056,12.89-0.567,18.559-1.717l26.454-244.458l-71.796,243.439
				C192.154,416.431,201.098,417.449,210.606,417.529z"/>
			<path style="fill:#FFFFFF;" d="M74.813,298.149l166.971-134.363L55.583,265.171C64.425,276.591,70.36,287.593,74.813,298.149z"/>
			<path style="fill:#FFFFFF;" d="M394.173,365.013c9.843-1.085,18.9-5.266,26.698-11.538L270.75,166.921l108.236,198.783
				C383.766,365.795,388.813,365.603,394.173,365.013z"/>
			<path style="fill:#FFFFFF;" d="M448.898,290.586L274.464,163.031l162.859,171.211C445.02,321.323,449.34,305.808,448.898,290.586
				z"/>
			<path style="fill:#FFFFFF;" d="M435.721,253.06c-20.96-26.372-48.191-42.601-62.639-57.543l-96.037-37.204l161.591,98.76
				C437.727,255.707,436.759,254.367,435.721,253.06z"/>
			<path style="fill:#FFFFFF;" d="M363.314,173.319c0.618-3.533,1.737-7.106,3.096-10.699l-88.094-9.533l84.833,25.02
				C362.987,176.536,363.029,174.944,363.314,173.319z"/>
			<path style="fill:#FFFFFF;" d="M291.726,369.194l-30.731-197.966l-5.853,234.14C271.626,394.946,282.289,379.961,291.726,369.194
				z"/>
			<path style="fill:#FFFFFF;" d="M145.399,138.704l91.954,9.951l-77.291-22.795C154.879,130.257,150.104,134.591,145.399,138.704z"
				/>
			<path style="fill:#FFFFFF;" d="M351.052,361.985l-84.896-192.269l44.841,185.807
				C322.255,353.152,334.706,358.172,351.052,361.985z"/>
			<path style="fill:#FFFFFF;" d="M230.053,87.954l19.46,44.071l-11.214-46.467C235.605,86.299,232.853,87.101,230.053,87.954z"/>
			<path style="fill:#FFFFFF;" d="M366.231,103.008l-89.551,39.541l100.855-24.34C375.959,112.987,372.49,107.898,366.231,103.008z"
				/>
			<path style="fill:#FFFFFF;" d="M377.921,132.229l-99.729,15.482l93.529,2.338C374.325,144.077,376.774,138.108,377.921,132.229z"
				/>
			<path style="fill:#FFFFFF;" d="M338.235,86.172l-64.35,51.783l80.038-43.58C349.066,91.347,343.873,88.568,338.235,86.172z"/>
			<polygon style="fill:#FFFFFF;" points="278.192,147.711 265.699,147.398 276.68,142.549 264.532,145.481 273.884,137.955 
				262.909,143.931 269.995,134.241 260.94,142.854 265.276,131.661 258.759,142.324 260.051,130.389 256.516,142.376 
				254.674,130.513 254.362,143.006 249.513,132.025 252.445,144.173 244.919,134.82 250.895,145.796 241.205,138.71 
				249.818,147.765 238.624,143.429 249.287,149.946 237.353,148.654 249.339,152.189 237.477,154.031 249.97,154.343 
				238.988,159.192 251.137,156.26 241.784,163.786 252.76,157.81 254.484,155.453 256.222,155.033 255.784,156.164 
				257.354,155.309 257.224,156.514 254.729,158.887 250.392,170.081 256.91,159.418 255.618,171.353 259.153,159.366 
				260.995,171.228 261.307,158.735 266.156,169.717 263.224,157.568 270.75,166.921 264.774,155.945 274.464,163.031 
				265.851,153.976 277.045,158.313 266.382,151.796 278.316,153.087 266.33,149.552 			"/>
			<path style="fill:#FFFFFF;" d="M310.684,78.598l-40.689,55.643L325.3,81.634C320.716,80.352,315.856,79.325,310.684,78.598z"/>
			<polygon style="fill:#FFFFFF;" points="252.76,157.81 245.674,167.5 254.729,158.887 255.784,156.164 			"/>
			<path style="fill:#FFFFFF;" d="M247.335,83.234l7.339,47.279l1.229-49.175C253.11,81.904,250.256,82.535,247.335,83.234z"/>
			<path style="fill:#FFFFFF;" d="M192.622,103.184l48.583,35.526l-38.559-40.537C199.115,99.799,195.785,101.473,192.622,103.184z"
				/>
			<path style="fill:#FFFFFF;" d="M212.163,94.115l32.756,40.705l-23.934-43.957C217.921,91.913,214.989,93,212.163,94.115z"/>
			<path style="fill:#FFFFFF;" d="M170.87,117.181l67.755,26.248l-56.128-34.304C178.331,111.769,174.478,114.466,170.87,117.181z"
				/>
			<path style="fill:#FFFFFF;" d="M286.26,77.495l-20.984,54.166l33.108-54.171C294.509,77.326,290.471,77.323,286.26,77.495z"/>
			<path style="fill:#FFFFFF;" d="M265.547,79.596l-5.496,50.793l15.364-52.095C272.22,78.631,268.932,79.063,265.547,79.596z"/>
		</g>
	</g>
</g>
<g id="Shadow">
	<g>
		<ellipse style="fill:#C6FF00;" cx="253.668" cy="388.108" rx="199.739" ry="55.312"/>
		<ellipse style="opacity:0.5;fill:#FFFFFF;" cx="253.668" cy="388.108" rx="199.739" ry="55.312"/>
	</g>
</g>
<g id="Plants">
	<g>
		<g>
			<path style="fill:#C6FF00;" d="M408.247,198.917c0,0,29.781,34.425,29.942,77.069c0.161,42.644-29.358,77.36-29.358,77.36
				s-29.781-34.424-29.943-77.069C378.727,233.633,408.247,198.917,408.247,198.917z"/>
			<path style="fill:#C6FF00;" d="M473.683,296.463c0,0,0.186,28.025-14.864,45.84c-15.05,17.815-39.637,18.674-39.637,18.674
				s-0.186-28.025,14.864-45.84C449.096,297.322,473.683,296.463,473.683,296.463z"/>
			<path style="fill:#C6FF00;" d="M344.328,293.871c0,0-1.236,27.991,13.133,46.521c14.369,18.531,38.902,20.585,38.902,20.585
				s1.236-27.991-13.133-46.521C368.861,295.924,344.328,293.871,344.328,293.871z"/>
		</g>
		<g style="opacity:0.5;">
			<path style="fill:#FFFFFF;" d="M408.247,198.917c0,0,29.781,34.425,29.942,77.069c0.161,42.644-29.358,77.36-29.358,77.36
				s-29.781-34.424-29.943-77.069C378.727,233.633,408.247,198.917,408.247,198.917z"/>
			<path style="fill:#FFFFFF;" d="M473.683,296.463c0,0,0.186,28.025-14.864,45.84c-15.05,17.815-39.637,18.674-39.637,18.674
				s-0.186-28.025,14.864-45.84C449.096,297.322,473.683,296.463,473.683,296.463z"/>
			<path style="fill:#FFFFFF;" d="M344.328,293.871c0,0-1.236,27.991,13.133,46.521c14.369,18.531,38.902,20.585,38.902,20.585
				s1.236-27.991-13.133-46.521C368.861,295.924,344.328,293.871,344.328,293.871z"/>
		</g>
		<g>
			<path style="fill:#FFFFFF;" d="M389.972,313.945l0.001-0.001c0.264-0.383,0.75-0.45,1.087-0.15l15.645,13.987
				c0.509,0.455,1.254,0.04,1.252-0.697l-0.122-32.254c-0.001-0.251-0.096-0.49-0.261-0.656l-23.5-23.689
				c-0.32-0.323-0.35-0.881-0.066-1.245l0,0c0.283-0.364,0.772-0.398,1.092-0.075l21.431,21.603
				c0.501,0.505,1.289,0.097,1.287-0.664l-0.134-35.489c-0.001-0.255-0.098-0.496-0.267-0.663l-15.547-15.329
				c-0.323-0.318-0.358-0.875-0.079-1.243l0.001-0.001c0.28-0.368,0.768-0.409,1.092-0.09l13.502,13.314
				c0.502,0.495,1.283,0.087,1.28-0.671l-0.189-50.129c-0.002-0.487,0.343-0.883,0.77-0.885h0.001
				c0.427-0.002,0.775,0.391,0.777,0.878l0.28,74.304c0.003,0.865,0.984,1.208,1.413,0.494l17.446-29.062
				c0.241-0.402,0.723-0.505,1.076-0.23l0.002,0.002c0.353,0.275,0.443,0.823,0.202,1.225l-19.989,33.298l-0.128-0.1l0.115,30.455
				c0.003,0.761,0.794,1.161,1.291,0.652l21.268-21.785c0.318-0.325,0.807-0.296,1.092,0.066l0.001,0.001
				c0.286,0.362,0.26,0.92-0.058,1.246l-23.574,24.147l-0.005-0.007l0.143,37.961c0.002,0.487-0.343,0.883-0.77,0.885h-0.001
				c-0.427,0.002-0.775-0.391-0.777-0.878l-0.079-20.884c-0.001-0.269-0.11-0.523-0.296-0.69l-17.574-15.711
				C389.767,314.883,389.709,314.329,389.972,313.945z"/>
			<path style="fill:#FFFFFF;" d="M345.21,295.719L345.21,295.719c0.319-0.325,0.809-0.294,1.094,0.069l23.603,30.063
				c0.506,0.645,1.44,0.16,1.344-0.698l-1.944-17.528c-0.054-0.483,0.246-0.924,0.67-0.985l0,0c0.424-0.061,0.812,0.281,0.865,0.764
				l2.532,22.838l-0.019,0.003l9.218,11.74c0.445,0.567,1.27,0.268,1.346-0.488l1.669-16.763c0.048-0.484,0.432-0.832,0.856-0.777
				l0.001,0c0.425,0.055,0.73,0.492,0.682,0.975l-1.98,19.887c-0.025,0.25,0.045,0.5,0.192,0.687l12.33,15.704
				c0.285,0.363,0.258,0.92-0.061,1.245l-0.002,0.002c-0.318,0.325-0.808,0.294-1.093-0.069l-6.66-8.483
				c-0.158-0.201-0.387-0.309-0.623-0.292l-12.289,0.845c-0.426,0.029-0.793-0.341-0.819-0.826v-0.001
				c-0.026-0.486,0.299-0.904,0.726-0.934l9.843-0.677c0.646-0.044,0.961-0.918,0.53-1.468l-9.853-12.55
				c-0.147-0.187-0.357-0.294-0.578-0.294l-17.577,0.023c-0.427,0-0.774-0.393-0.775-0.88v-0.001
				c-0.001-0.487,0.345-0.883,0.773-0.883l14.814-0.02c0.668-0.001,1.021-0.902,0.576-1.469l-10.875-13.851
				c-0.149-0.19-0.363-0.297-0.586-0.294l-11.3,0.154c-0.427,0.006-0.777-0.383-0.783-0.87v-0.001
				c-0.006-0.487,0.337-0.887,0.764-0.893l8.596-0.117c0.664-0.009,1.01-0.905,0.567-1.469l-15.837-20.171
				C344.864,296.602,344.891,296.044,345.21,295.719z"/>
			<path style="fill:#FFFFFF;" d="M425.302,335.907l0.002,0c0.423-0.066,0.813,0.273,0.871,0.755l1.326,11.133
				c0.087,0.73,0.876,1.024,1.324,0.493l10.247-12.129c0.153-0.181,0.231-0.428,0.214-0.678l-1.332-19.97
				c-0.032-0.485,0.287-0.909,0.713-0.946l0.002,0c0.426-0.037,0.798,0.327,0.83,0.812l1.122,16.829
				c0.051,0.759,0.866,1.093,1.329,0.545l11.312-13.391c0.155-0.183,0.233-0.434,0.213-0.688l-0.978-12.827
				c-0.037-0.485,0.278-0.912,0.704-0.955h0c0.426-0.042,0.801,0.317,0.838,0.802l0.744,9.759c0.058,0.754,0.868,1.081,1.328,0.535
				l16.474-19.5c0.297-0.351,0.787-0.362,1.095-0.023l0,0c0.307,0.338,0.317,0.896,0.021,1.246l-24.551,29.061
				c-0.527,0.623-0.033,1.647,0.711,1.475l15.198-3.516c0.419-0.097,0.827,0.211,0.912,0.688l0,0.002
				c0.085,0.477-0.185,0.943-0.604,1.04l-19.8,4.581l-0.004-0.025l-9.588,11.349c-0.463,0.548-0.14,1.463,0.528,1.492l14.797,0.646
				c0.427,0.019,0.76,0.429,0.744,0.915l0,0.003c-0.017,0.486-0.376,0.865-0.803,0.847l-17.556-0.766
				c-0.22-0.01-0.434,0.089-0.587,0.27l-12.824,15.18c-0.296,0.351-0.787,0.361-1.095,0.023v0c-0.308-0.338-0.317-0.896-0.021-1.246
				l6.927-8.199c0.164-0.194,0.241-0.463,0.209-0.73l-1.656-13.901C424.582,336.417,424.879,335.973,425.302,335.907z"/>
		</g>
	</g>
</g>
<g id="Device">
	<g>
		<g>
			
				<rect x="240.299" y="157.231" style="fill:#FFFFFF;stroke:#263238;stroke-linecap:round;stroke-linejoin:round;stroke-miterlimit:10;" width="33.666" height="8.677"/>
			
				<rect x="246.898" y="157.231" style="fill:#263238;stroke:#263238;stroke-linecap:round;stroke-linejoin:round;stroke-miterlimit:10;" width="5.333" height="8.677"/>
			
				<rect x="235.729" y="165.508" style="fill:#FFFFFF;stroke:#263238;stroke-linecap:round;stroke-linejoin:round;stroke-miterlimit:10;" width="42.807" height="8.677"/>
			
				<rect x="243.565" y="165.508" style="fill:#263238;stroke:#263238;stroke-linecap:round;stroke-linejoin:round;stroke-miterlimit:10;" width="6" height="8.677"/>
		</g>
		<g>
			<path style="fill:#C6FF00;stroke:#263238;stroke-linecap:round;stroke-linejoin:round;stroke-miterlimit:10;" d="
				M257.132,132.401L257.132,132.401c-9.296,0-16.833,7.536-16.833,16.833v8.398h33.665v-8.398
				C273.965,139.937,266.428,132.401,257.132,132.401z"/>
			<path style="fill:#FFFFFF;" d="M266.193,140.792c0-1.888-1.53-3.418-3.418-3.418c-1.887,0-3.417,1.53-3.417,3.418
				c0,0.025,0.007,0.048,0.007,0.073c-0.665-0.216-1.373-0.336-2.11-0.336c-3.775,0-6.835,3.06-6.835,6.835
				c0,3.775,3.06,6.835,6.835,6.835c3.775,0,6.835-3.06,6.835-6.835c0-1.159-0.291-2.25-0.8-3.207
				C264.932,143.908,266.193,142.503,266.193,140.792z"/>
			<path style="fill:none;stroke:#263238;stroke-linecap:round;stroke-linejoin:round;stroke-miterlimit:10;" d="M247.153,139.657
				c-0.185,0.201-0.365,0.409-0.539,0.624c-2.452,3.029-3.029,5.914-3.173,6.78c-0.144,0.865,0,6.347,0,6.347"/>
			<path style="fill:none;stroke:#263238;stroke-linecap:round;stroke-linejoin:round;stroke-miterlimit:10;" d="M252.817,135.521
				c0,0-1.242,0.573-2.763,1.637"/>
			
				<line style="fill:#C6FF00;stroke:#263238;stroke-linecap:round;stroke-linejoin:round;stroke-miterlimit:10;" x1="256.786" y1="116.703" x2="256.786" y2="126.121"/>
			
				<line style="fill:#C6FF00;stroke:#263238;stroke-linecap:round;stroke-linejoin:round;stroke-miterlimit:10;" x1="270.255" y1="132.146" x2="275.677" y2="127.341"/>
			
				<line style="fill:#C6FF00;stroke:#263238;stroke-linecap:round;stroke-linejoin:round;stroke-miterlimit:10;" x1="276.347" y1="147.856" x2="284.799" y2="147.856"/>
			
				<line style="fill:#C6FF00;stroke:#263238;stroke-linecap:round;stroke-linejoin:round;stroke-miterlimit:10;" x1="243.813" y1="132.146" x2="238.391" y2="127.341"/>
			
				<line style="fill:#C6FF00;stroke:#263238;stroke-linecap:round;stroke-linejoin:round;stroke-miterlimit:10;" x1="237.721" y1="147.856" x2="229.269" y2="147.856"/>
		</g>
	</g>
	<g>
		<g id="XMLID_222_">
			<path id="XMLID_4_" style="fill:#263238;stroke:#263238;stroke-linecap:round;stroke-linejoin:round;stroke-miterlimit:10;" d="
				M374.329,334.51H139.6V181.648c0-4.402,3.569-7.971,7.971-7.971h218.788c4.402,0,7.971,3.569,7.971,7.971V334.51z"/>
			
				<polygon id="XMLID_46_" style="fill:#FFFFFF;stroke:#263238;stroke-linecap:round;stroke-linejoin:round;stroke-miterlimit:10;" points="
				409.538,405.609 104.391,405.609 139.6,334.51 374.329,334.51 			"/>
			
				<rect id="XMLID_44_" x="153.818" y="186.412" style="fill:#C6FF00;stroke:#263238;stroke-linecap:round;stroke-linejoin:round;stroke-miterlimit:10;" width="206.293" height="135.363"/>
			
				<rect x="158.388" y="189.786" style="fill:#FFFFFF;stroke:#263238;stroke-linecap:round;stroke-linejoin:round;stroke-miterlimit:10;" width="197.42" height="7.037"/>
			
				<rect x="339.193" y="189.786" style="fill:#263238;stroke:#263238;stroke-linecap:round;stroke-linejoin:round;stroke-miterlimit:10;" width="16.616" height="7.037"/>
			<g id="XMLID_51_">
				
					<polygon id="XMLID_74_" style="fill:#263238;stroke:#FFFFFF;stroke-linecap:round;stroke-linejoin:round;stroke-miterlimit:10;" points="
					247.173,357.016 247.58,348.352 235.177,348.352 234.356,357.016 				"/>
				
					<polygon id="XMLID_75_" style="fill:#263238;stroke:#FFFFFF;stroke-linecap:round;stroke-linejoin:round;stroke-miterlimit:10;" points="
					272.808,357.016 272.385,348.352 259.982,348.352 259.99,357.016 				"/>
				
					<polygon id="XMLID_76_" style="fill:#263238;stroke:#FFFFFF;stroke-linecap:round;stroke-linejoin:round;stroke-miterlimit:10;" points="
					339.564,366.279 352.825,366.279 349.712,357.016 336.895,357.016 				"/>
				
					<polygon id="XMLID_77_" style="fill:#263238;stroke:#FFFFFF;stroke-linecap:round;stroke-linejoin:round;stroke-miterlimit:10;" points="
					234.356,357.016 235.177,348.352 222.775,348.352 221.538,357.016 				"/>
				
					<polygon id="XMLID_78_" style="fill:#263238;stroke:#FFFFFF;stroke-linecap:round;stroke-linejoin:round;stroke-miterlimit:10;" points="
					208.721,357.016 210.372,348.352 197.969,348.352 195.903,357.016 				"/>
				
					<polygon id="XMLID_80_" style="fill:#263238;stroke:#FFFFFF;stroke-linecap:round;stroke-linejoin:round;stroke-miterlimit:10;" points="
					324.077,357.016 321.995,348.352 309.593,348.352 311.26,357.016 				"/>
				
					<polygon id="XMLID_81_" style="fill:#263238;stroke:#FFFFFF;stroke-linecap:round;stroke-linejoin:round;stroke-miterlimit:10;" points="
					336.895,357.016 334.398,348.352 321.995,348.352 324.077,357.016 				"/>
				
					<polygon id="XMLID_82_" style="fill:#263238;stroke:#FFFFFF;stroke-linecap:round;stroke-linejoin:round;stroke-miterlimit:10;" points="
					195.903,357.016 197.969,348.352 185.567,348.352 183.086,357.016 				"/>
				
					<polygon id="XMLID_83_" style="fill:#263238;stroke:#FFFFFF;stroke-linecap:round;stroke-linejoin:round;stroke-miterlimit:10;" points="
					285.625,357.016 284.788,348.352 272.385,348.352 272.808,357.016 				"/>
				
					<polygon id="XMLID_84_" style="fill:#263238;stroke:#FFFFFF;stroke-linecap:round;stroke-linejoin:round;stroke-miterlimit:10;" points="
					349.712,357.016 346.801,348.352 334.398,348.352 336.895,357.016 				"/>
				
					<polygon id="XMLID_85_" style="fill:#263238;stroke:#FFFFFF;stroke-linecap:round;stroke-linejoin:round;stroke-miterlimit:10;" points="
					311.26,357.016 309.593,348.352 297.19,348.352 298.443,357.016 				"/>
				
					<polygon id="XMLID_86_" style="fill:#263238;stroke:#FFFFFF;stroke-linecap:round;stroke-linejoin:round;stroke-miterlimit:10;" points="
					298.443,357.016 297.19,348.352 284.788,348.352 285.625,357.016 				"/>
				
					<polygon id="XMLID_87_" style="fill:#263238;stroke:#FFFFFF;stroke-linecap:round;stroke-linejoin:round;stroke-miterlimit:10;" points="
					259.99,357.016 259.982,348.352 247.58,348.352 247.173,357.016 				"/>
				
					<polygon id="XMLID_94_" style="fill:#263238;stroke:#FFFFFF;stroke-linecap:round;stroke-linejoin:round;stroke-miterlimit:10;" points="
					170.269,357.016 157.452,357.016 153.913,366.279 167.173,366.279 				"/>
				
					<polygon id="XMLID_95_" style="fill:#263238;stroke:#FFFFFF;stroke-linecap:round;stroke-linejoin:round;stroke-miterlimit:10;" points="
					173.164,348.352 160.762,348.352 157.452,357.016 170.269,357.016 				"/>
				
					<polygon id="XMLID_96_" style="fill:#263238;stroke:#FFFFFF;stroke-linecap:round;stroke-linejoin:round;stroke-miterlimit:10;" points="
					183.086,357.016 185.567,348.352 173.164,348.352 170.269,357.016 				"/>
				
					<polygon id="XMLID_97_" style="fill:#263238;stroke:#FFFFFF;stroke-linecap:round;stroke-linejoin:round;stroke-miterlimit:10;" points="
					150.12,376.207 146.045,386.871 160.292,386.871 163.856,376.207 				"/>
				
					<polygon id="XMLID_98_" style="fill:#263238;stroke:#FFFFFF;stroke-linecap:round;stroke-linejoin:round;stroke-miterlimit:10;" points="
					167.173,366.279 153.913,366.279 150.12,376.207 163.856,376.207 				"/>
				
					<polygon id="XMLID_99_" style="fill:#263238;stroke:#FFFFFF;stroke-linecap:round;stroke-linejoin:round;stroke-miterlimit:10;" points="
					163.856,376.207 160.292,386.871 174.538,386.871 177.592,376.207 				"/>
				
					<polygon id="XMLID_100_" style="fill:#263238;stroke:#FFFFFF;stroke-linecap:round;stroke-linejoin:round;stroke-miterlimit:10;" points="
					221.538,357.016 222.775,348.352 210.372,348.352 208.721,357.016 				"/>
				
					<polygon id="XMLID_101_" style="fill:#263238;stroke:#FFFFFF;stroke-linecap:round;stroke-linejoin:round;stroke-miterlimit:10;" points="
					220.216,366.279 221.538,357.016 208.721,357.016 206.956,366.279 				"/>
				
					<polygon id="XMLID_102_" style="fill:#263238;stroke:#FFFFFF;stroke-linecap:round;stroke-linejoin:round;stroke-miterlimit:10;" points="
					206.956,366.279 208.721,357.016 195.903,357.016 193.695,366.279 				"/>
				
					<polygon id="XMLID_103_" style="fill:#263238;stroke:#FFFFFF;stroke-linecap:round;stroke-linejoin:round;stroke-miterlimit:10;" points="
					233.477,366.279 234.356,357.016 221.538,357.016 220.216,366.279 				"/>
				
					<polygon id="XMLID_104_" style="fill:#263238;stroke:#FFFFFF;stroke-linecap:round;stroke-linejoin:round;stroke-miterlimit:10;" points="
					183.086,357.016 170.269,357.016 167.173,366.279 180.434,366.279 				"/>
				
					<polygon id="XMLID_105_" style="fill:#263238;stroke:#FFFFFF;stroke-linecap:round;stroke-linejoin:round;stroke-miterlimit:10;" points="
					342.425,376.207 356.161,376.207 352.825,366.279 339.564,366.279 				"/>
				
					<polygon id="XMLID_106_" style="fill:#263238;stroke:#FFFFFF;stroke-linecap:round;stroke-linejoin:round;stroke-miterlimit:10;" points="
					193.695,366.279 195.903,357.016 183.086,357.016 180.434,366.279 				"/>
				
					<polygon id="XMLID_107_" style="fill:#263238;stroke:#FFFFFF;stroke-linecap:round;stroke-linejoin:round;stroke-miterlimit:10;" points="
					167.173,366.279 163.856,376.207 177.592,376.207 180.434,366.279 				"/>
				
					<polygon id="XMLID_108_" style="fill:#263238;stroke:#FFFFFF;stroke-linecap:round;stroke-linejoin:round;stroke-miterlimit:10;" points="
					313.042,366.279 311.26,357.016 298.443,357.016 299.781,366.279 				"/>
				
					<polygon id="XMLID_109_" style="fill:#263238;stroke:#FFFFFF;stroke-linecap:round;stroke-linejoin:round;stroke-miterlimit:10;" points="
					299.781,366.279 298.443,357.016 285.625,357.016 286.521,366.279 				"/>
				
					<polygon id="XMLID_110_" style="fill:#263238;stroke:#FFFFFF;stroke-linecap:round;stroke-linejoin:round;stroke-miterlimit:10;" points="
					339.564,366.279 336.895,357.016 324.077,357.016 326.303,366.279 				"/>
				
					<polygon id="XMLID_111_" style="fill:#263238;stroke:#FFFFFF;stroke-linecap:round;stroke-linejoin:round;stroke-miterlimit:10;" points="
					259.999,366.279 259.99,357.016 247.173,357.016 246.738,366.279 				"/>
				
					<polygon id="XMLID_112_" style="fill:#263238;stroke:#FFFFFF;stroke-linecap:round;stroke-linejoin:round;stroke-miterlimit:10;" points="
					286.521,366.279 285.625,357.016 272.808,357.016 273.26,366.279 				"/>
				
					<polygon id="XMLID_113_" style="fill:#263238;stroke:#FFFFFF;stroke-linecap:round;stroke-linejoin:round;stroke-miterlimit:10;" points="
					273.26,366.279 272.808,357.016 259.99,357.016 259.999,366.279 				"/>
				
					<polygon id="XMLID_114_" style="fill:#263238;stroke:#FFFFFF;stroke-linecap:round;stroke-linejoin:round;stroke-miterlimit:10;" points="
					246.738,366.279 247.173,357.016 234.356,357.016 233.477,366.279 				"/>
				
					<polygon id="XMLID_115_" style="fill:#263238;stroke:#FFFFFF;stroke-linecap:round;stroke-linejoin:round;stroke-miterlimit:10;" points="
					286.521,366.279 287.48,376.207 301.216,376.207 299.781,366.279 				"/>
				
					<polygon id="XMLID_116_" style="fill:#263238;stroke:#FFFFFF;stroke-linecap:round;stroke-linejoin:round;stroke-miterlimit:10;" points="
					299.781,366.279 301.216,376.207 314.952,376.207 313.042,366.279 				"/>
				
					<polygon id="XMLID_117_" style="fill:#263238;stroke:#FFFFFF;stroke-linecap:round;stroke-linejoin:round;stroke-miterlimit:10;" points="
					180.434,366.279 177.592,376.207 191.328,376.207 193.695,366.279 				"/>
				
					<polygon id="XMLID_118_" style="fill:#263238;stroke:#FFFFFF;stroke-linecap:round;stroke-linejoin:round;stroke-miterlimit:10;" points="
					313.042,366.279 314.952,376.207 328.688,376.207 326.303,366.279 				"/>
				
					<polygon id="XMLID_119_" style="fill:#263238;stroke:#FFFFFF;stroke-linecap:round;stroke-linejoin:round;stroke-miterlimit:10;" points="
					259.999,366.279 260.008,376.207 273.744,376.207 273.26,366.279 				"/>
				
					<polygon id="XMLID_120_" style="fill:#263238;stroke:#FFFFFF;stroke-linecap:round;stroke-linejoin:round;stroke-miterlimit:10;" points="
					326.303,366.279 328.688,376.207 342.425,376.207 339.564,366.279 				"/>
				
					<polygon id="XMLID_121_" style="fill:#263238;stroke:#FFFFFF;stroke-linecap:round;stroke-linejoin:round;stroke-miterlimit:10;" points="
					273.26,366.279 273.744,376.207 287.48,376.207 286.521,366.279 				"/>
				
					<polygon id="XMLID_122_" style="fill:#263238;stroke:#FFFFFF;stroke-linecap:round;stroke-linejoin:round;stroke-miterlimit:10;" points="
					206.956,366.279 205.064,376.207 218.8,376.207 220.216,366.279 				"/>
				
					<polygon id="XMLID_123_" style="fill:#263238;stroke:#FFFFFF;stroke-linecap:round;stroke-linejoin:round;stroke-miterlimit:10;" points="
					193.695,366.279 191.328,376.207 205.064,376.207 206.956,366.279 				"/>
				
					<polygon id="XMLID_124_" style="fill:#263238;stroke:#FFFFFF;stroke-linecap:round;stroke-linejoin:round;stroke-miterlimit:10;" points="
					246.738,366.279 246.272,376.207 260.008,376.207 259.999,366.279 				"/>
				
					<polygon id="XMLID_125_" style="fill:#263238;stroke:#FFFFFF;stroke-linecap:round;stroke-linejoin:round;stroke-miterlimit:10;" points="
					233.477,366.279 232.536,376.207 246.272,376.207 246.738,366.279 				"/>
				
					<polygon id="XMLID_126_" style="fill:#263238;stroke:#FFFFFF;stroke-linecap:round;stroke-linejoin:round;stroke-miterlimit:10;" points="
					220.216,366.279 218.8,376.207 232.536,376.207 233.477,366.279 				"/>
				
					<polygon id="XMLID_127_" style="fill:#263238;stroke:#FFFFFF;stroke-linecap:round;stroke-linejoin:round;stroke-miterlimit:10;" points="
					326.303,366.279 324.077,357.016 311.26,357.016 313.042,366.279 				"/>
				
					<polygon id="XMLID_132_" style="fill:#263238;stroke:#FFFFFF;stroke-linecap:round;stroke-linejoin:round;stroke-miterlimit:10;" points="
					173.164,348.352 176.128,339.485 164.15,339.485 160.762,348.352 				"/>
				
					<polygon id="XMLID_135_" style="fill:#263238;stroke:#FFFFFF;stroke-linecap:round;stroke-linejoin:round;stroke-miterlimit:10;" points="
					160.762,348.352 149.313,348.352 145.62,357.016 157.452,357.016 				"/>
				
					<polygon id="XMLID_136_" style="fill:#263238;stroke:#FFFFFF;stroke-linecap:round;stroke-linejoin:round;stroke-miterlimit:10;" points="
					164.15,339.485 153.093,339.485 149.313,348.352 160.762,348.352 				"/>
				
					<polygon id="XMLID_137_" style="fill:#263238;stroke:#FFFFFF;stroke-linecap:round;stroke-linejoin:round;stroke-miterlimit:10;" points="
					157.452,357.016 145.62,357.016 141.672,366.279 153.913,366.279 				"/>
				
					<polygon id="XMLID_138_" style="fill:#263238;stroke:#FFFFFF;stroke-linecap:round;stroke-linejoin:round;stroke-miterlimit:10;" points="
					153.913,366.279 141.672,366.279 137.44,376.207 150.12,376.207 				"/>
				
					<polygon id="XMLID_3_" style="fill:#263238;stroke:#FFFFFF;stroke-linecap:round;stroke-linejoin:round;stroke-miterlimit:10;" points="
					150.12,376.207 137.44,376.207 132.894,386.871 146.045,386.871 				"/>
				
					<polygon id="XMLID_2_" style="fill:#263238;stroke:#FFFFFF;stroke-linecap:round;stroke-linejoin:round;stroke-miterlimit:10;" points="
					362.529,357.016 366.085,366.279 377.816,366.279 373.868,357.016 				"/>
				
					<polygon id="XMLID_147_" style="fill:#263238;stroke:#FFFFFF;stroke-linecap:round;stroke-linejoin:round;stroke-miterlimit:10;" points="
					369.896,376.207 382.048,376.207 377.816,366.279 366.085,366.279 				"/>
				
					<polygon id="XMLID_148_" style="fill:#263238;stroke:#FFFFFF;stroke-linecap:round;stroke-linejoin:round;stroke-miterlimit:10;" points="
					373.991,386.871 386.594,386.871 382.048,376.207 369.896,376.207 				"/>
				
					<polygon id="XMLID_155_" style="fill:#263238;stroke:#FFFFFF;stroke-linecap:round;stroke-linejoin:round;stroke-miterlimit:10;" points="
					272.385,348.352 271.953,339.485 259.974,339.485 259.982,348.352 				"/>
				
					<polygon id="XMLID_156_" style="fill:#263238;stroke:#FFFFFF;stroke-linecap:round;stroke-linejoin:round;stroke-miterlimit:10;" points="
					362.529,357.016 373.868,357.016 370.175,348.352 359.203,348.352 				"/>
				
					<polygon id="XMLID_157_" style="fill:#263238;stroke:#FFFFFF;stroke-linecap:round;stroke-linejoin:round;stroke-miterlimit:10;" points="
					356.161,376.207 369.896,376.207 366.085,366.279 352.825,366.279 				"/>
				
					<polygon id="XMLID_158_" style="fill:#263238;stroke:#FFFFFF;stroke-linecap:round;stroke-linejoin:round;stroke-miterlimit:10;" points="
					185.567,348.352 188.106,339.485 176.128,339.485 173.164,348.352 				"/>
				
					<polygon id="XMLID_159_" style="fill:#263238;stroke:#FFFFFF;stroke-linecap:round;stroke-linejoin:round;stroke-miterlimit:10;" points="
					346.801,348.352 349.712,357.016 362.529,357.016 359.203,348.352 				"/>
				
					<polygon id="XMLID_160_" style="fill:#263238;stroke:#FFFFFF;stroke-linecap:round;stroke-linejoin:round;stroke-miterlimit:10;" points="
					370.175,348.352 366.395,339.485 355.799,339.485 359.203,348.352 				"/>
				
					<polygon id="XMLID_161_" style="fill:#263238;stroke:#FFFFFF;stroke-linecap:round;stroke-linejoin:round;stroke-miterlimit:10;" points="
					359.203,348.352 355.799,339.485 343.821,339.485 346.801,348.352 				"/>
				
					<polygon id="XMLID_162_" style="fill:#263238;stroke:#FFFFFF;stroke-linecap:round;stroke-linejoin:round;stroke-miterlimit:10;" points="
					314.952,376.207 317.004,386.871 331.251,386.871 328.688,376.207 				"/>
				
					<polygon id="XMLID_163_" style="fill:#263238;stroke:#FFFFFF;stroke-linecap:round;stroke-linejoin:round;stroke-miterlimit:10;" points="
					359.744,386.871 373.991,386.871 369.896,376.207 356.161,376.207 				"/>
				
					<polygon id="XMLID_164_" style="fill:#263238;stroke:#FFFFFF;stroke-linecap:round;stroke-linejoin:round;stroke-miterlimit:10;" points="
					346.801,348.352 343.821,339.485 331.843,339.485 334.398,348.352 				"/>
				
					<polygon id="XMLID_167_" style="fill:#263238;stroke:#FFFFFF;stroke-linecap:round;stroke-linejoin:round;stroke-miterlimit:10;" points="
					342.425,376.207 345.498,386.871 359.744,386.871 356.161,376.207 				"/>
				
					<polygon id="XMLID_168_" style="fill:#263238;stroke:#FFFFFF;stroke-linecap:round;stroke-linejoin:round;stroke-miterlimit:10;" points="
					328.688,376.207 331.251,386.871 345.498,386.871 342.425,376.207 				"/>
				
					<polygon id="XMLID_169_" style="fill:#263238;stroke:#FFFFFF;stroke-linecap:round;stroke-linejoin:round;stroke-miterlimit:10;" points="
					352.825,366.279 366.085,366.279 362.529,357.016 349.712,357.016 				"/>
				
					<polygon id="XMLID_170_" style="fill:#263238;stroke:#FFFFFF;stroke-linecap:round;stroke-linejoin:round;stroke-miterlimit:10;" points="
					235.177,348.352 236.018,339.485 224.04,339.485 222.775,348.352 				"/>
				
					<polygon id="XMLID_171_" style="fill:#263238;stroke:#FFFFFF;stroke-linecap:round;stroke-linejoin:round;stroke-miterlimit:10;" points="
					334.398,348.352 331.843,339.485 319.865,339.485 321.995,348.352 				"/>
				
					<polygon id="XMLID_172_" style="fill:#263238;stroke:#FFFFFF;stroke-linecap:round;stroke-linejoin:round;stroke-miterlimit:10;" points="
					222.775,348.352 224.04,339.485 212.062,339.485 210.372,348.352 				"/>
				
					<polygon id="XMLID_173_" style="fill:#263238;stroke:#FFFFFF;stroke-linecap:round;stroke-linejoin:round;stroke-miterlimit:10;" points="
					259.982,348.352 259.974,339.485 247.996,339.485 247.58,348.352 				"/>
				
					<polygon id="XMLID_174_" style="fill:#263238;stroke:#FFFFFF;stroke-linecap:round;stroke-linejoin:round;stroke-miterlimit:10;" points="
					210.372,348.352 212.062,339.485 200.084,339.485 197.969,348.352 				"/>
				
					<polygon id="XMLID_175_" style="fill:#263238;stroke:#FFFFFF;stroke-linecap:round;stroke-linejoin:round;stroke-miterlimit:10;" points="
					197.969,348.352 200.084,339.485 188.106,339.485 185.567,348.352 				"/>
				
					<polygon id="XMLID_176_" style="fill:#263238;stroke:#FFFFFF;stroke-linecap:round;stroke-linejoin:round;stroke-miterlimit:10;" points="
					247.58,348.352 247.996,339.485 236.018,339.485 235.177,348.352 				"/>
				
					<polygon id="XMLID_177_" style="fill:#263238;stroke:#FFFFFF;stroke-linecap:round;stroke-linejoin:round;stroke-miterlimit:10;" points="
					321.995,348.352 319.865,339.485 307.887,339.485 309.593,348.352 				"/>
				
					<polygon id="XMLID_178_" style="fill:#263238;stroke:#FFFFFF;stroke-linecap:round;stroke-linejoin:round;stroke-miterlimit:10;" points="
					309.593,348.352 307.887,339.485 295.908,339.485 297.19,348.352 				"/>
				
					<polygon id="XMLID_179_" style="fill:#263238;stroke:#FFFFFF;stroke-linecap:round;stroke-linejoin:round;stroke-miterlimit:10;" points="
					284.788,348.352 283.93,339.485 271.953,339.485 272.385,348.352 				"/>
				
					<polygon id="XMLID_53_" style="fill:#263238;stroke:#FFFFFF;stroke-linecap:round;stroke-linejoin:round;stroke-miterlimit:10;" points="
					314.952,376.207 301.216,376.207 287.48,376.207 273.744,376.207 260.008,376.207 246.272,376.207 232.536,376.207 
					218.8,376.207 205.064,376.207 191.328,376.207 177.592,376.207 174.538,386.872 188.785,386.872 203.031,386.872 
					217.278,386.872 231.525,386.872 245.771,386.872 260.018,386.872 274.265,386.872 288.511,386.872 302.758,386.872 
					317.004,386.872 				"/>
				
					<polygon id="XMLID_181_" style="fill:#263238;stroke:#FFFFFF;stroke-linecap:round;stroke-linejoin:round;stroke-miterlimit:10;" points="
					297.19,348.352 295.908,339.485 283.93,339.485 284.788,348.352 				"/>
			</g>
			
				<rect id="XMLID_45_" x="104.391" y="405.609" style="fill:#263238;stroke:#263238;stroke-linecap:round;stroke-linejoin:round;stroke-miterlimit:10;" width="305.287" height="4.332"/>
		</g>
		<g>
			<path style="fill:#263238;stroke:#263238;stroke-linecap:round;stroke-linejoin:round;stroke-miterlimit:10;" d="
				M261.831,210.524l47.099,81.577c2.132,3.693-0.533,8.309-4.797,8.309h-94.197c-4.264,0-6.929-4.616-4.797-8.309l47.099-81.577
				C254.369,206.831,259.699,206.831,261.831,210.524z"/>
			<path style="fill:none;stroke:#FFFFFF;stroke-linecap:round;stroke-linejoin:round;stroke-miterlimit:10;" d="M261.049,217.686
				l39.419,70.05c1.784,3.171-0.446,7.135-4.015,7.135h-78.839c-3.569,0-5.799-3.964-4.015-7.135l39.42-70.05
				C254.803,214.515,259.264,214.515,261.049,217.686z"/>
			<g>
				<path style="fill:#FFFFFF;" d="M249.626,238.19c-0.365-2.989,0.78-5.113,3.431-6.374c2.652-1.261,5.303-1.261,7.955,0
					c2.651,1.261,3.795,3.385,3.431,6.374l-3.626,28.894c-0.13,1.196-0.572,2.131-1.326,2.807c-0.754,0.677-1.567,1.014-2.437,1.014
					c-0.871,0-1.683-0.337-2.437-1.014c-0.754-0.676-1.196-1.611-1.326-2.807L249.626,238.19z M252.491,288.548
					c-1.286-1.286-1.93-2.866-1.93-4.737c0-1.819,0.624-3.387,1.872-4.699c1.247-1.311,2.82-1.969,4.718-1.969
					c1.767,0,3.301,0.623,4.601,1.871c1.3,1.249,1.95,2.847,1.95,4.797c0,1.819-0.631,3.385-1.891,4.698
					c-1.261,1.313-2.814,1.97-4.66,1.97C255.331,290.479,253.778,289.836,252.491,288.548z"/>
			</g>
		</g>
	</g>
</g>
<g id="Character">
	<g>
		<path style="fill:#263238;stroke:#263238;stroke-linecap:round;stroke-linejoin:round;stroke-miterlimit:10;" d="M107.38,306.035
			l0.671,5.374c0,0,10.433,35.455,10.589,38.933c0.156,3.478-36.942,49.103-36.942,49.103l-7.112-3.167l25.669-49.402
			c0,0-26.804-24.833-27.978-33.091c-1.174-8.258,3.384-19.705,3.384-19.705S107.376,303.579,107.38,306.035z"/>
		<g>
			<g>
				<defs>
					<path id="XMLID_9_" d="M129.223,255.173l-4.375,41.682l31.906,13.86l-1.923,4.708l-34.474-8.919
						c-3.917-1.013-6.774-4.379-7.138-8.408l-1.505-16.652L129.223,255.173z"/>
				</defs>
				<use xlink:href="#XMLID_9_"  style="overflow:visible;fill:#FFFFFF;"/>
				<clipPath id="XMLID_00000096753984055486236920000006316440058274191799_">
					<use xlink:href="#XMLID_9_"  style="overflow:visible;"/>
				</clipPath>
				<g style="clip-path:url(#XMLID_00000096753984055486236920000006316440058274191799_);">
					<path style="fill:#C6FF00;" d="M115.504,275.759l1.605-2.409l3.056,4.774l-3.796,16.661l4.429,1.265
						c0,0-4.218,2.32-3.374,3.164c0.843,0.844,4.007,0.211,4.007,0.211l34.474,13.372l-1.072,2.626l-34.474-8.919
						c-3.917-1.013-6.774-4.379-7.138-8.408l-1.278-14.136C112.921,281.38,114.423,278.112,115.504,275.759z"/>
					<path style="opacity:0.3;" d="M115.504,275.759l1.605-2.409l3.056,4.774l-3.796,16.661l4.429,1.265c0,0-4.218,2.32-3.374,3.164
						c0.843,0.844,4.007,0.211,4.007,0.211l34.474,13.372l-1.072,2.626l-34.474-8.919c-3.917-1.013-6.774-4.379-7.138-8.408
						l-1.278-14.136C112.921,281.38,114.423,278.112,115.504,275.759z"/>
				</g>
				
					<use xlink:href="#XMLID_9_"  style="overflow:visible;fill:none;stroke:#263238;stroke-linecap:round;stroke-linejoin:round;stroke-miterlimit:10;"/>
			</g>
			<path style="fill:none;stroke:#263238;stroke-linecap:round;stroke-linejoin:round;stroke-miterlimit:10;" d="M119.665,298.722
				c2.507-1.791,5.183-1.867,5.183-1.867s-3.75-1.536-7.153-0.104"/>
		</g>
		<g>
			<g>
				<defs>
					<path id="XMLID_6_" d="M111.392,243.895l17.831,11.278l-21.373,53.323c0,0-3.062,1.975-15.825-1.655
						c-12.763-3.629-17.068-11.837-17.068-11.837l9.513-54.368l17.018-1.024L111.392,243.895z"/>
				</defs>
				<use xlink:href="#XMLID_6_"  style="overflow:visible;fill:#FFFFFF;"/>
				<clipPath id="XMLID_00000167372134513309686680000011738821208316244918_">
					<use xlink:href="#XMLID_6_"  style="overflow:visible;"/>
				</clipPath>
				<g style="clip-path:url(#XMLID_00000167372134513309686680000011738821208316244918_);">
					<path style="fill:#C6FF00;" d="M74.956,295.005l9.513-54.368l17.018-1.024l9.785,4.23l-4.393,11.716l-5.567-2.287
						l-13.414,8.614l9.068,2.531l-7.381,3.585l-6.538,20.668c0,0,21.09-2.742,18.348-2.109c-2.742,0.633-21.511,7.803-21.511,9.069
						c0,1.265,9.279,8.014,14.13,10.334c4.851,2.32,10.123,2.742,10.123,2.742s-2.735-0.178-6.274-0.435
						c-1.675-0.332-3.605-0.793-5.838-1.428C79.261,303.213,74.956,295.005,74.956,295.005z"/>
					<path style="opacity:0.3;" d="M74.956,295.005l9.513-54.368l17.018-1.024l9.785,4.23l-4.393,11.716l-5.567-2.287l-13.414,8.614
						l9.068,2.531l-7.381,3.585l-6.538,20.668c0,0,21.09-2.742,18.348-2.109c-2.742,0.633-21.511,7.803-21.511,9.069
						c0,1.265,9.279,8.014,14.13,10.334c4.851,2.32,10.123,2.742,10.123,2.742s-2.735-0.178-6.274-0.435
						c-1.675-0.332-3.605-0.793-5.838-1.428C79.261,303.213,74.956,295.005,74.956,295.005z"/>
				</g>
				
					<use xlink:href="#XMLID_6_"  style="overflow:visible;fill:none;stroke:#263238;stroke-linecap:round;stroke-linejoin:round;stroke-miterlimit:10;"/>
			</g>
			
				<line style="fill:none;stroke:#263238;stroke-linecap:round;stroke-linejoin:round;stroke-miterlimit:10;" x1="97.833" y1="302.308" x2="97.089" y2="305.771"/>
			
				<line style="fill:none;stroke:#263238;stroke-linecap:round;stroke-linejoin:round;stroke-miterlimit:10;" x1="107.369" y1="257.905" x2="98.592" y2="298.774"/>
			
				<line style="fill:none;stroke:#263238;stroke-linecap:round;stroke-linejoin:round;stroke-miterlimit:10;" x1="97.993" y1="262.005" x2="86.889" y2="259.498"/>
		</g>
		<polygon style="fill:#FFFFFF;stroke:#263238;stroke-linecap:round;stroke-linejoin:round;stroke-miterlimit:10;" points="
			113.704,242.742 116.397,256.01 110.317,249.194 		"/>
		<g>
			<g>
				<defs>
					<path id="XMLID_5_" d="M116.24,240.292l-9.008,16.409l-0.224-10.197l-3.984-6.085l0.163-6.734c0,0-3.417-3.791-3.773-6.558
						c-0.356-2.768,0.259-9.754,4.817-11.582c4.558-1.828,10.819-1.876,10.819-1.876s-3.365-2.633-0.345-2.536
						c3.02,0.097,4.585,3.97,4.585,3.97s1.002-3.524,2.063-0.556c1.061,2.968-0.709,4.903-2.308,5.439
						c-1.6,0.535-2.498,6.375-2.796,10.1C115.95,233.81,116.24,240.292,116.24,240.292z"/>
				</defs>
				<use xlink:href="#XMLID_5_"  style="overflow:visible;fill:#FFFFFF;"/>
				<clipPath id="XMLID_00000058555722625165344380000002717808205584720825_">
					<use xlink:href="#XMLID_5_"  style="overflow:visible;"/>
				</clipPath>
				<g style="clip-path:url(#XMLID_00000058555722625165344380000002717808205584720825_);">
					<path style="fill:#C6FF00;" d="M103.186,233.685c0,0-3.417-3.791-3.773-6.558c-0.356-2.768,0.259-9.754,4.817-11.582
						c4.558-1.828,10.819-1.876,10.819-1.876s-3.365-2.633-0.345-2.536c3.02,0.097,4.585,3.97,4.585,3.97s1.002-3.524,2.063-0.556
						c1.061,2.968-0.708,4.903-2.308,5.439c-1.6,0.536-2.498,6.375-2.796,10.1c-0.297,3.725-0.007,10.207-0.007,10.207l-0.979,1.784
						l-4.797,1.251l-3.302,10.193l-0.154-7.017l-3.984-6.085L103.186,233.685z"/>
					<path style="opacity:0.3;" d="M103.186,233.685c0,0-3.417-3.791-3.773-6.558c-0.356-2.768,0.259-9.754,4.817-11.582
						c4.558-1.828,10.819-1.876,10.819-1.876s-3.365-2.633-0.345-2.536c3.02,0.097,4.585,3.97,4.585,3.97s1.002-3.524,2.063-0.556
						c1.061,2.968-0.708,4.903-2.308,5.439c-1.6,0.536-2.498,6.375-2.796,10.1c-0.297,3.725-0.007,10.207-0.007,10.207l-0.979,1.784
						l-4.797,1.251l-3.302,10.193l-0.154-7.017l-3.984-6.085L103.186,233.685z"/>
				</g>
				
					<use xlink:href="#XMLID_5_"  style="overflow:visible;fill:none;stroke:#263238;stroke-linecap:round;stroke-linejoin:round;stroke-miterlimit:10;"/>
			</g>
		</g>
		<g>
			<path style="fill:#263238;stroke:#263238;stroke-linecap:round;stroke-linejoin:round;stroke-miterlimit:10;" d="M104.23,215.544
				c4.558-1.828,10.819-1.876,10.819-1.876s-3.365-2.633-0.345-2.536c3.02,0.097,4.585,3.97,4.585,3.97s1.002-3.524,2.063-0.556
				c1.061,2.968-0.709,4.903-2.308,5.439c-1.504,0.503-2.388,5.695-2.736,9.41l-9.134,5.272l-4.002-0.372l0.015-0.609
				c0,0-3.417-3.791-3.773-6.558C99.058,224.359,99.673,217.372,104.23,215.544z"/>
			<path style="fill:none;stroke:#FFFFFF;stroke-width:0.5;stroke-linecap:round;stroke-linejoin:round;stroke-miterlimit:10;" d="
				M114.829,219.557c0,0-1.612,0.537-6.985-0.179c-5.373-0.716-8.239,3.403-8.418,6.269"/>
			<path style="fill:none;stroke:#FFFFFF;stroke-width:0.5;stroke-linecap:round;stroke-linejoin:round;stroke-miterlimit:10;" d="
				M113.934,225.289c0,0-6.806,0.358-9.313,0c-2.507-0.358-4.836,1.612-3.582,4.119"/>
		</g>
		<g>
			<g>
				<defs>
					<path id="XMLID_1_" d="M118.729,218.143c0,0,2.47,3.369,2.553,5.221c0.083,1.852-0.781,3.283-0.781,3.283l3.479,5.18
						l-2.516,0.808l-0.481,9.996l-0.916,0.273l-10.815-3.228l-2.08-5.01c0,0-2.398-1.749-2.923-3.117
						c-0.254-0.663-0.417-1.71-0.517-2.614c-0.127-1.144,0.777-2.131,1.928-2.112c0.736,0.013,1.484,0.215,1.896,0.866
						c0.999,1.579,1.776,3.4,1.776,3.4l1.389-0.062l0.549-3.272c0,0,3.683-0.629,3.642-1.555c-0.041-0.926-1.406-5.504-1.406-5.504
						L118.729,218.143z"/>
				</defs>
				<use xlink:href="#XMLID_1_"  style="overflow:visible;fill:#FFFFFF;"/>
				<clipPath id="XMLID_00000070838013973720450670000018334655506020565662_">
					<use xlink:href="#XMLID_1_"  style="overflow:visible;"/>
				</clipPath>
				<g style="clip-path:url(#XMLID_00000070838013973720450670000018334655506020565662_);">
					<path style="fill:#C6FF00;" d="M105.662,226.824c0.736,0.013,1.484,0.215,1.896,0.866c0.999,1.579,1.776,3.4,1.776,3.4
						l1.389-0.062l0.549-3.272c0,0,3.683-0.629,3.642-1.555c-0.041-0.926-1.406-5.504-1.406-5.504l1.814-0.887
						c1.376,1.874,2.769,4.224,2.313,5.592c-0.844,2.531-3.585,6.327-2.742,8.436c0.569,1.422,1.328,5.524,1.763,8.049l-7.402-2.209
						l-2.08-5.01c0,0-2.398-1.749-2.923-3.117c-0.254-0.663-0.417-1.71-0.517-2.614
						C103.607,227.791,104.511,226.804,105.662,226.824z"/>
					<path style="opacity:0.3;" d="M105.662,226.824c0.736,0.013,1.484,0.215,1.896,0.866c0.999,1.579,1.776,3.4,1.776,3.4
						l1.389-0.062l0.549-3.272c0,0,3.683-0.629,3.642-1.555c-0.041-0.926-1.406-5.504-1.406-5.504l1.814-0.887
						c1.376,1.874,2.769,4.224,2.313,5.592c-0.844,2.531-3.585,6.327-2.742,8.436c0.569,1.422,1.328,5.524,1.763,8.049l-7.402-2.209
						l-2.08-5.01c0,0-2.398-1.749-2.923-3.117c-0.254-0.663-0.417-1.71-0.517-2.614
						C103.607,227.791,104.511,226.804,105.662,226.824z"/>
				</g>
				
					<use xlink:href="#XMLID_1_"  style="overflow:visible;fill:none;stroke:#263238;stroke-linecap:round;stroke-linejoin:round;stroke-miterlimit:10;"/>
			</g>
			<path style="fill:#263238;" d="M117.93,227.493c0,0.809,0.239,1.466,0.533,1.466c0.294,0,0.533-0.656,0.533-1.466
				s-0.239-1.466-0.533-1.466C118.169,226.028,117.93,226.684,117.93,227.493z"/>
			<path style="fill:none;stroke:#263238;stroke-linecap:round;stroke-linejoin:round;stroke-miterlimit:10;" d="M119.58,223.532
				c0,0-0.894-1.788-2.682,1.192"/>
			<path style="fill:#263238;" d="M118.09,235.825c0,0.535,0.3,0.968,0.67,0.968s0.671-0.434,0.671-0.968
				c0-0.535-0.3-0.969-0.671-0.969S118.09,235.29,118.09,235.825z"/>
		</g>
		<g>
			<defs>
				<polygon id="XMLID_7_" points="107.831,246.418 101.312,253.272 99.94,240.208 103.002,238.233 				"/>
			</defs>
			<use xlink:href="#XMLID_7_"  style="overflow:visible;fill:#C6FF00;"/>
			<clipPath id="XMLID_00000070828570037142881350000016789808703101882774_">
				<use xlink:href="#XMLID_7_"  style="overflow:visible;"/>
			</clipPath>
			<polygon style="opacity:0.3;clip-path:url(#XMLID_00000070828570037142881350000016789808703101882774_);" points="
				107.831,246.418 101.312,253.272 99.94,240.208 103.002,238.233 			"/>
			
				<use xlink:href="#XMLID_7_"  style="overflow:visible;fill:none;stroke:#263238;stroke-linecap:round;stroke-linejoin:round;stroke-miterlimit:10;"/>
		</g>
		<g>
			<path style="fill:#263238;stroke:#263238;stroke-linecap:round;stroke-linejoin:round;stroke-miterlimit:10;" d="M95.6,310.608
				c0,0,22.745,27.148,29.002,35.178c6.257,8.03,7.774,11.984,7.287,13.078c-0.487,1.094-10.065,53.139-10.065,53.139l-7.83-0.182
				c0,0,0.917-19.239,0.086-29.868c-0.841-10.75,2.5-23.576,2.5-23.576S87.692,340.47,76.609,323.19
				c-5.352-8.344-5.846-11.471-3.42-20.823"/>
			<path style="fill:none;stroke:#FFFFFF;stroke-width:0.5;stroke-linecap:round;stroke-linejoin:round;stroke-miterlimit:10;" d="
				M117.326,401.27c-0.199,3.501-0.335,5.766-0.335,5.766"/>
			<path style="fill:none;stroke:#FFFFFF;stroke-width:0.5;stroke-linecap:round;stroke-linejoin:round;stroke-miterlimit:10;" d="
				M85.5,324.113c2.923,3.767,6.41,7.866,9.953,11.125c8.975,8.257,28.719,24.411,26.565,24.411c-2.154,0-3.949,1.795-3.231,3.59
				c0.467,1.169-0.435,19.38-1.121,31.948"/>
			<path style="fill:none;stroke:#FFFFFF;stroke-width:0.5;stroke-linecap:round;stroke-linejoin:round;stroke-miterlimit:10;" d="
				M77.503,302.57c0,0-4.308,4.308-1.795,5.026c2.513,0.718,8.257,2.154,6.103,2.872c-2.154,0.718-3.949,2.872-3.949,2.872
				s1.507,2.386,3.917,5.767"/>
			<path style="fill:none;stroke:#FFFFFF;stroke-width:0.5;stroke-linecap:round;stroke-linejoin:round;stroke-miterlimit:10;" d="
				M111.607,330.571c0,0-20.103-21.18-28.36-24.411"/>
		</g>
		<path style="fill:#FFFFFF;stroke:#263238;stroke-linecap:round;stroke-linejoin:round;stroke-miterlimit:10;" d="M121.824,412.002
			l16.032,8.704c0,0,0.048,1.064-2.081,1.16s-22.708,1.016-23.788,0.709c-1.08-0.307,2.007-10.755,2.007-10.755L121.824,412.002z"/>
		<g>
			<g>
				<defs>
					<path id="XMLID_8_" d="M84.47,240.637L47.536,269.02c-2.049,1.574-2.821,4.306-1.901,6.72l11.969,31.404l6.355-0.995
						l-3.856-26.92c-0.343-2.398,0.827-4.759,2.943-5.938l17.3-9.64C80.344,263.65,85.126,243.378,84.47,240.637z"/>
				</defs>
				<use xlink:href="#XMLID_8_"  style="overflow:visible;fill:#FFFFFF;"/>
				<clipPath id="XMLID_00000084488347723402525440000004967013885516263049_">
					<use xlink:href="#XMLID_8_"  style="overflow:visible;"/>
				</clipPath>
				<g style="clip-path:url(#XMLID_00000084488347723402525440000004967013885516263049_);">
					<path style="fill:#C6FF00;" d="M47.536,269.02l36.934-28.382c0.656,2.74-4.126,23.013-4.126,23.013l-8.977,5.002
						c-2.431-1.871-6.072-4.47-8.777-5.5c-4.429-1.687-16.239,7.381-16.028,9.912c0.181,2.17,11.054,26.654,14.152,33.592
						l-3.111,0.487L45.634,275.74C44.714,273.326,45.487,270.594,47.536,269.02z"/>
					<path style="opacity:0.3;" d="M47.536,269.02l36.934-28.382c0.656,2.74-4.126,23.013-4.126,23.013l-8.977,5.002
						c-2.431-1.871-6.072-4.47-8.777-5.5c-4.429-1.687-16.239,7.381-16.028,9.912c0.181,2.17,11.054,26.654,14.152,33.592
						l-3.111,0.487L45.634,275.74C44.714,273.326,45.487,270.594,47.536,269.02z"/>
				</g>
				
					<use xlink:href="#XMLID_8_"  style="overflow:visible;fill:none;stroke:#263238;stroke-linecap:round;stroke-linejoin:round;stroke-miterlimit:10;"/>
			</g>
			<path style="fill:none;stroke:#263238;stroke-linecap:round;stroke-linejoin:round;stroke-miterlimit:10;" d="M52.142,271.319
				c4.299,1.791,7.881,4.119,7.881,4.119s-2.328-4.836-5.731-6.09"/>
		</g>
		<path style="fill:#FFFFFF;stroke:#263238;stroke-linecap:round;stroke-linejoin:round;stroke-miterlimit:10;" d="M63.958,306.148
			l3.323,2.725l2.69,5.25l-1.024,1.12l-2.594-3.106l-0.843,1.726l0.486,10.872l-1.824,0.389l-1.083-3.634l-1.719-0.69l-1.549-3.767
			c0,0-1.46-1.776-1.794-2.375c-0.334-0.599-0.423-7.514-0.423-7.514L63.958,306.148z"/>
		
			<line style="fill:#FFFFFF;stroke:#263238;stroke-linecap:round;stroke-linejoin:round;stroke-miterlimit:10;" x1="63.089" y1="321.488" x2="62.703" y2="316.289"/>
		
			<line style="fill:#FFFFFF;stroke:#263238;stroke-linecap:round;stroke-linejoin:round;stroke-miterlimit:10;" x1="61.37" y1="320.798" x2="60.545" y2="316.078"/>
		
			<line style="fill:#FFFFFF;stroke:#263238;stroke-linecap:round;stroke-linejoin:round;stroke-miterlimit:10;" x1="59.82" y1="317.031" x2="59.398" y2="314.442"/>
		<polygon style="fill:#FFFFFF;stroke:#263238;stroke-linecap:round;stroke-linejoin:round;stroke-miterlimit:10;" points="
			156.755,310.715 161.905,310.305 165.244,312.917 163.388,319.444 157.495,317.496 154.832,315.423 		"/>
		
			<rect x="163.329" y="313.494" transform="matrix(-0.9031 -0.4294 0.4294 -0.9031 180.9793 670.1213)" style="fill:#FFFFFF;stroke:#263238;stroke-linecap:round;stroke-linejoin:round;stroke-miterlimit:10;" width="5.518" height="2.299"/>
		
			<rect x="162.193" y="315.54" transform="matrix(-0.9031 -0.4294 0.4294 -0.9031 177.9449 673.5261)" style="fill:#FFFFFF;stroke:#263238;stroke-linecap:round;stroke-linejoin:round;stroke-miterlimit:10;" width="5.518" height="2.299"/>
		
			<rect x="160.264" y="317.007" transform="matrix(-0.9031 -0.4294 0.4294 -0.9031 173.6379 675.4903)" style="fill:#FFFFFF;stroke:#263238;stroke-linecap:round;stroke-linejoin:round;stroke-miterlimit:10;" width="5.518" height="2.299"/>
		
			<rect x="160.059" y="318.932" transform="matrix(-0.9031 -0.4294 0.4294 -0.9031 171.2238 678.2973)" style="fill:#FFFFFF;stroke:#263238;stroke-linecap:round;stroke-linejoin:round;stroke-miterlimit:10;" width="4.149" height="1.801"/>
		<path style="fill:#FFFFFF;stroke:#263238;stroke-linecap:round;stroke-linejoin:round;stroke-miterlimit:10;" d="M161.905,310.305
			l4.258,2.571l-2.05,5.616l-1.127-1.177l0.19-2.617c0,0-2.715,1.042-4.614-0.254"/>
		<path style="fill:#FFFFFF;stroke:#263238;stroke-linecap:round;stroke-linejoin:round;stroke-miterlimit:10;" d="M81.698,399.445
			l3.619,3.859l6.613,3.993c0,0,0.666,1.196-1.474,1.291c-2.14,0.096-9.228-0.813-10.451-0.758
			c-1.223,0.055-2.848-2.017-4.682-1.935c-1.029,0.046-2.871-0.835-4.29-1.618c-1.049-0.579-1.315-1.968-0.562-2.9l4.115-5.099
			L81.698,399.445z"/>
		<path style="fill:#263238;stroke:#263238;stroke-linecap:round;stroke-linejoin:round;stroke-miterlimit:10;" d="M91.795,407.216
			l0.135,0.081c0,0,0.666,1.196-1.474,1.291c-2.14,0.096-9.228-0.813-10.451-0.758c-1.223,0.055-2.848-2.017-4.682-1.935
			c-1.029,0.046-2.871-0.835-4.29-1.619c-1.049-0.579-1.315-1.968-0.562-2.9l0.102-0.126c2.198,1.432,5.481,2.374,8.392,3.869
			C82.252,406.808,88.741,407.15,91.795,407.216z"/>
		<path style="fill:#263238;stroke:#263238;stroke-linecap:round;stroke-linejoin:round;stroke-miterlimit:10;" d="M111.969,419.973
			c6.16,1.075,17.61,0.285,23.993-0.294l1.894,1.029c0,0,0.048,1.064-2.081,1.16s-22.708,1.016-23.788,0.709
			C111.651,422.48,111.718,421.407,111.969,419.973z"/>
	</g>
</g>
</svg>
